<?xml version="1.0" encoding="utf-8"?>
<svg version="1.1" xmlns="http://www.w3.org/2000/svg" xmlns:xlink="http://www.w3.org/1999/xlink" x="0px" y="0px" viewBox="0 0 256 256" enable-background="new 0 0 256 256" xml:space="preserve">
<g><g><path fill="#898989" d="M246,185.9v-25.1L145.5,104V51.5c0,0,0-38.2-17.5-38.2c-17.5,0-17.5,38.2-17.5,38.2V104L10,160.8v25.1l100.5-21.8v35l-35,28.4v15.3l52.4-9.8l52.5,9.8v-15.3l-35-28.4v-35L246,185.9L246,185.9L246,185.9z"/><path fill="#898989" d="M118.2,228.5c-1.8,5.4,1.1,11.3,6.5,13.1c5.4,1.8,11.3-1.1,13.1-6.5c0.7-2.1,0.7-4.5,0-6.6c1.8-5.4-1.1-11.3-6.5-13.1c-5.4-1.8-11.3,1.1-13.1,6.5C117.5,224,117.5,226.4,118.2,228.5L118.2,228.5z"/></g></g>
</svg>